<?xml version="1.0" standalone="no"?>
<!DOCTYPE svg PUBLIC "-//W3C//DTD SVG 20010904//EN"
 "http://www.w3.org/TR/2001/REC-SVG-20010904/DTD/svg10.dtd">
<svg version="1.0" xmlns="http://www.w3.org/2000/svg"
 width="1024.000000pt" height="1024.000000pt" viewBox="0 0 1024.000000 1024.000000"
 preserveAspectRatio="xMidYMid meet">
<metadata>
Created by potrace 1.14, written by Peter Selinger 2001-2017
</metadata>
<g transform="translate(0.000000,1024.000000) scale(0.100000,-0.100000)"
fill="#000000" stroke="none">
<path d="M3297 9234 c-1 -2 -90 -4 -197 -5 -514 -5 -842 -70 -1140 -227 -247
-130 -447 -308 -619 -550 -28 -39 -51 -74 -51 -76 0 -3 -22 -43 -50 -90 -27
-47 -47 -86 -44 -86 2 0 -4 -17 -15 -37 -60 -119 -132 -407 -147 -588 -3 -33
-7 -66 -10 -74 -5 -16 -14 -276 -16 -458 -1 -85 -4 -120 -12 -116 -8 5 -8 3 0
-8 13 -16 13 -77 0 -98 -7 -11 -6 -12 5 -6 12 8 12 6 0 -8 -7 -9 -9 -17 -4
-17 6 0 9 -12 7 -27 -2 -16 -4 -248 -4 -517 0 -380 -2 -492 -12 -504 -10 -12
-10 -14 0 -8 17 10 17 -55 0 -73 -10 -11 -10 -13 -1 -7 17 10 17 -55 1 -73
-10 -11 -10 -13 -1 -7 17 10 17 -55 1 -73 -9 -9 -9 -12 -1 -7 18 10 19 -690 1
-712 -11 -13 -11 -14 0 -8 10 6 12 -24 11 -153 -2 -88 0 -164 4 -167 3 -3 2
-17 -3 -30 -5 -13 -6 -24 -2 -24 9 0 7 -74 -3 -89 -3 -6 -1 -11 5 -11 7 0 8
-6 1 -18 -7 -13 -7 -22 1 -30 8 -8 7 -16 -3 -28 -12 -16 -12 -17 1 -9 13 8 13
7 1 -8 -7 -10 -9 -17 -3 -17 11 0 11 -18 -1 -37 -4 -6 -3 -14 2 -18 12 -7 10
-45 -2 -45 -4 0 -5 -5 -1 -12 12 -19 12 -131 0 -147 -8 -11 -8 -13 2 -7 16 9
16 -6 0 -23 -11 -11 -10 -12 0 -6 16 8 13 -26 -3 -37 -6 -5 -6 -8 1 -8 13 0
13 -48 0 -69 -6 -10 -5 -12 2 -7 8 5 12 0 12 -13 0 -12 -6 -21 -12 -21 -8 0
-9 -3 -3 -8 14 -10 15 -56 1 -64 -8 -5 -8 -8 0 -8 7 0 11 -31 11 -90 0 -62 -3
-87 -11 -83 -8 5 -8 3 0 -8 7 -9 12 -106 14 -274 1 -143 3 -304 4 -357 1 -54
3 -98 6 -98 3 0 7 -17 8 -37 1 -21 5 -55 8 -76 4 -28 2 -37 -6 -32 -7 4 -5 -3
4 -16 8 -14 17 -47 19 -74 3 -28 7 -57 11 -65 11 -28 34 -150 27 -150 -3 0 0
-4 7 -9 7 -4 14 -24 15 -43 1 -20 5 -34 10 -31 4 2 7 -7 7 -21 0 -14 5 -26 11
-26 6 0 9 -11 7 -23 -1 -13 5 -32 15 -41 9 -10 17 -23 17 -30 0 -8 12 -34 26
-60 14 -25 22 -51 18 -57 -4 -7 -3 -9 3 -6 11 7 37 -39 36 -65 0 -10 3 -15 8
-12 9 5 31 -30 24 -40 -3 -3 -2 -4 2 -1 9 7 55 -63 49 -74 -3 -5 4 -11 16 -14
12 -4 19 -9 15 -13 -4 -4 2 -14 14 -22 11 -8 18 -20 15 -29 -3 -8 -2 -12 2 -9
5 3 16 -4 25 -14 11 -13 12 -20 4 -24 -7 -2 -2 -5 11 -5 12 -1 22 -4 22 -9 0
-4 21 -29 46 -55 40 -42 44 -50 32 -65 -12 -15 -11 -16 5 -3 15 12 21 10 51
-20 19 -18 32 -37 30 -41 -3 -5 -2 -7 3 -6 14 3 53 -13 53 -22 0 -5 -7 -13
-16 -18 -15 -8 -15 -10 0 -15 9 -4 15 -3 13 1 -1 4 3 7 8 7 6 0 9 -3 8 -7 -2
-4 3 -5 11 -2 7 3 34 -11 60 -30 25 -20 50 -36 55 -36 5 0 16 -10 25 -22 9
-13 14 -17 10 -9 -5 10 -3 12 5 7 7 -5 10 -14 8 -20 -3 -7 1 -13 9 -13 7 0 11
4 9 8 -7 10 199 -94 207 -106 4 -5 8 -7 8 -3 0 4 17 1 38 -7 41 -16 233 -72
272 -79 14 -2 25 -5 25 -6 0 -2 32 -7 79 -13 21 -3 43 -11 47 -19 7 -10 9 -10
9 0 0 6 4 12 10 12 5 0 7 -6 4 -13 -3 -8 2 -14 10 -14 8 0 12 6 10 12 -4 9 10
10 53 3 32 -5 77 -10 101 -11 38 -1 47 -7 43 -29 0 -4 7 -4 16 -1 11 4 13 8 5
11 -7 2 -12 7 -12 11 0 11 64 0 72 -13 6 -8 8 -8 8 0 0 16 71 16 89 1 11 -9
13 -9 8 0 -9 15 44 13 55 -2 5 -6 8 -5 8 3 0 7 5 10 10 7 6 -4 8 -10 5 -15 -3
-4 2 -10 10 -13 9 -4 12 -1 9 7 -3 8 0 17 7 22 8 5 10 3 4 -7 -8 -12 -6 -12 8
0 13 10 17 10 17 1 0 -10 3 -10 15 0 8 6 20 8 27 4 18 -12 38 -14 38 -4 0 4
12 5 28 3 15 -2 164 -5 332 -6 225 -1 305 -5 305 -14 0 -6 3 -15 7 -19 4 -3 6
2 4 13 -4 18 1 20 52 19 51 -1 57 -3 56 -22 -1 -11 5 -21 12 -21 7 0 10 5 6
11 -17 28 -7 32 86 32 84 -1 95 -3 98 -19 1 -11 5 -22 9 -25 3 -4 4 5 2 19 -5
25 -3 26 46 25 29 -1 52 -4 52 -7 0 -11 28 -39 39 -39 6 0 5 4 -3 9 -8 5 -16
16 -17 23 -1 11 18 14 95 13 66 0 96 -4 96 -12 0 -6 3 -15 7 -19 4 -3 6 2 4
13 -4 18 1 20 52 19 51 -1 57 -3 56 -22 -1 -11 5 -21 12 -21 7 0 10 5 6 11
-17 28 -7 32 86 32 84 -1 95 -3 98 -19 1 -11 5 -22 9 -25 3 -4 4 5 2 19 -5 25
-4 26 51 25 32 -1 57 -5 57 -11 0 -16 15 -35 28 -35 8 0 7 4 -2 9 -8 5 -16 16
-17 23 -1 12 65 14 415 15 372 0 417 -1 428 -16 11 -13 12 -13 8 -1 -8 24 53
26 71 3 10 -13 13 -14 9 -3 -8 24 53 26 71 3 10 -13 13 -14 9 -3 -8 24 53 26
71 3 11 -14 13 -14 9 -2 -5 14 25 16 292 16 204 0 300 -4 305 -11 5 -7 8 -8 8
0 0 7 66 10 200 10 127 -1 200 3 200 9 0 6 5 3 10 -5 5 -8 10 -11 10 -6 0 5 7
3 15 -4 13 -11 14 -10 8 6 -6 17 -5 17 10 5 9 -7 17 -10 17 -5 0 5 14 9 30 9
17 1 30 -3 30 -8 0 -4 6 -5 13 0 27 17 37 12 32 -17 -3 -16 -1 -31 3 -34 5 -3
8 5 7 17 -1 12 0 27 2 33 5 14 134 15 152 0 11 -8 13 -8 8 1 -11 17 19 23 96
20 37 -2 62 0 55 4 -7 4 5 8 27 7 22 0 53 3 68 6 22 5 27 4 21 -6 -4 -7 2 -5
13 4 23 21 59 24 66 6 3 -8 6 -6 6 4 1 11 8 16 21 13 11 -2 20 -1 20 3 0 7 17
11 70 15 14 1 28 6 31 10 3 5 20 9 37 9 18 1 32 4 32 8 0 4 11 10 25 12 14 3
25 1 25 -3 0 -5 9 0 21 12 l21 21 26 -24 c23 -19 24 -20 9 -2 -18 21 -17 22
15 34 18 7 36 12 41 11 4 0 7 3 7 9 0 5 8 10 18 10 10 0 23 5 30 12 7 7 12 9
12 4 0 -4 13 2 29 13 16 12 32 21 36 21 4 0 20 9 36 21 16 11 29 17 29 13 0
-4 9 1 19 10 11 10 25 15 31 11 6 -3 9 -2 8 3 -2 6 1 10 5 10 5 1 17 10 26 21
10 11 21 18 25 14 3 -3 6 -1 6 5 0 6 10 17 22 23 17 9 24 8 34 -5 10 -14 12
-15 17 -1 4 8 3 14 -1 12 -4 -1 -7 3 -7 8 0 6 4 9 8 7 5 -1 6 2 2 7 -7 12 29
33 40 23 5 -4 5 -2 2 4 -7 13 130 141 145 136 5 -1 7 2 4 7 -4 5 1 14 10 19 9
5 17 13 17 18 1 5 5 8 10 6 4 -1 7 4 7 12 0 8 12 24 26 35 15 12 23 21 19 21
-4 0 6 15 23 34 16 19 38 48 48 65 10 17 22 31 27 31 4 0 5 5 2 10 -3 6 -2 10
3 10 5 0 15 13 22 30 7 16 17 27 23 23 6 -4 8 0 5 8 -3 9 3 26 13 40 10 13 19
30 19 37 0 6 5 12 11 12 5 0 7 5 4 10 -3 6 -1 10 4 10 6 0 10 3 9 8 -5 17 14
50 35 61 12 6 14 9 5 7 -10 -3 -18 -1 -18 4 0 6 5 10 10 10 6 0 9 3 9 8 -4 23
3 34 17 28 13 -5 14 -4 5 7 -8 11 -7 25 6 60 14 39 19 44 32 34 12 -10 12 -9
1 10 -11 17 -11 27 -2 48 7 14 12 35 12 46 0 11 4 18 9 15 4 -3 6 6 3 19 -2
14 0 25 5 25 5 0 9 12 10 28 0 15 3 41 7 57 8 41 14 82 20 135 3 25 8 68 12
95 3 28 6 69 6 93 0 23 3 42 7 42 3 0 4 25 3 56 -3 45 0 58 15 70 14 11 14 13
2 8 -14 -4 -17 3 -16 48 1 35 7 57 17 66 13 11 13 12 -1 7 -13 -5 -15 5 -12
72 2 43 4 143 4 223 1 93 5 150 13 159 8 12 8 13 -1 7 -18 -10 -18 55 0 73 10
11 10 13 0 7 -17 -10 -17 55 -1 73 10 11 10 13 1 7 -17 -10 -17 55 0 73 9 11
9 13 0 7 -17 -10 -17 55 0 73 10 11 10 13 0 7 -9 -5 -13 2 -13 26 0 19 6 40
13 47 9 11 9 13 0 7 -9 -5 -13 2 -13 26 0 19 6 40 13 47 9 11 9 13 0 7 -17
-10 -17 55 -1 73 9 9 9 12 1 7 -18 -10 -19 690 -1 712 10 12 10 14 1 8 -18
-10 -18 55 -1 73 10 11 10 13 1 7 -17 -10 -17 55 -1 73 10 11 10 13 1 7 -17
-10 -17 55 0 73 10 11 10 13 0 7 -17 -10 -17 55 0 73 9 11 9 13 0 7 -17 -10
-17 55 0 73 10 11 10 13 0 7 -17 -10 -17 55 0 73 10 11 10 13 0 7 -17 -10 -17
55 -1 73 9 9 9 12 1 7 -18 -10 -19 690 -1 712 10 12 10 14 1 8 -18 -10 -18 55
0 73 10 11 10 13 0 7 -17 -10 -17 55 0 73 10 11 9 13 0 7 -17 -10 -17 55 0 73
10 11 10 13 0 7 -17 -10 -17 55 0 73 10 11 9 13 0 7 -17 -10 -17 55 0 73 7 9
8 11 0 7 -8 -4 -11 61 -13 252 0 141 -2 277 -4 302 -1 25 2 51 7 58 5 6 6 12
1 12 -5 0 -10 53 -11 118 -1 64 -5 140 -7 167 -3 28 -8 86 -11 130 -4 44 -13
117 -21 163 -9 46 -13 90 -10 98 3 9 1 12 -4 9 -6 -3 -10 3 -10 14 0 27 -65
239 -96 315 -43 103 -131 256 -204 356 -204 276 -494 491 -817 603 -103 36
-285 80 -383 92 -30 4 -62 9 -70 10 -8 1 -58 6 -110 10 -52 4 -113 9 -135 11
-46 5 -4054 12 -4058 8z"/>
<path d="M9113 2045 c0 -8 4 -15 9 -15 4 0 8 4 8 9 0 6 -4 12 -8 15 -5 3 -9
-1 -9 -9z"/>
<path d="M1176 2022 c-3 -5 1 -9 9 -9 8 0 12 4 9 9 -3 4 -7 8 -9 8 -2 0 -6 -4
-9 -8z"/>
<path d="M9056 2021 c-3 -5 2 -15 12 -22 15 -12 16 -12 5 2 -7 9 -10 19 -6 22
3 4 4 7 0 7 -3 0 -8 -4 -11 -9z"/>
<path d="M1336 1707 c3 -10 9 -15 12 -12 3 3 0 11 -7 18 -10 9 -11 8 -5 -6z"/>
<path d="M8850 1697 c0 -2 6 -10 14 -16 11 -9 16 -9 22 1 4 7 4 10 -1 6 -4 -4
-14 -3 -22 3 -7 6 -13 9 -13 6z"/>
<path d="M8835 1631 c-3 -5 -2 -12 3 -15 5 -3 9 1 9 9 0 17 -3 19 -12 6z"/>
<path d="M8799 1613 c-13 -16 -12 -17 4 -4 16 13 21 21 13 21 -2 0 -10 -8 -17
-17z"/>
<path d="M1473 1585 c0 -8 4 -15 9 -15 4 0 8 4 8 9 0 6 -4 12 -8 15 -5 3 -9
-1 -9 -9z"/>
<path d="M1435 1580 c3 -5 8 -10 11 -10 2 0 4 5 4 10 0 6 -5 10 -11 10 -5 0
-7 -4 -4 -10z"/>
<path d="M8734 1526 c1 -8 5 -18 8 -22 4 -3 5 1 4 10 -1 8 -5 18 -8 22 -4 3
-5 -1 -4 -10z"/>
<path d="M1430 1526 c0 -2 7 -7 16 -10 8 -3 12 -2 9 4 -6 10 -25 14 -25 6z"/>
<path d="M8679 1508 c-5 -16 -4 -50 1 -53 4 -3 7 6 6 18 -1 12 3 25 9 29 6 5
6 8 -2 8 -7 0 -13 -1 -14 -2z"/>
<path d="M1572 1476 c7 -8 15 -12 17 -11 5 6 -10 25 -20 25 -5 0 -4 -6 3 -14z"/>
<path d="M1470 1456 c0 -2 8 -10 18 -17 15 -13 16 -12 3 4 -13 16 -21 21 -21
13z"/>
<path d="M8625 1420 c-3 -6 1 -7 9 -4 18 7 21 14 7 14 -6 0 -13 -4 -16 -10z"/>
<path d="M1630 1380 c0 -5 5 -10 11 -10 5 0 7 5 4 10 -3 6 -8 10 -11 10 -2 0
-4 -4 -4 -10z"/>
<path d="M1715 1330 c10 -11 20 -20 23 -20 3 0 -3 9 -13 20 -10 11 -20 20 -23
20 -3 0 3 -9 13 -20z"/>
<path d="M1748 1338 c5 -5 16 -8 23 -6 8 3 3 7 -10 11 -17 4 -21 3 -13 -5z"/>
<path d="M8535 1320 c-3 -5 -1 -10 4 -10 6 0 11 5 11 10 0 6 -2 10 -4 10 -3 0
-8 -4 -11 -10z"/>
<path d="M1760 1300 c-9 -6 -10 -10 -3 -10 6 0 15 5 18 10 8 12 4 12 -15 0z"/>
<path d="M8346 1242 c-3 -5 1 -9 9 -9 8 0 12 4 9 9 -3 4 -7 8 -9 8 -2 0 -6 -4
-9 -8z"/>
<path d="M8290 1216 c0 -3 9 -10 19 -15 14 -8 22 -7 32 7 11 14 11 15 -1 5 -9
-8 -19 -9 -32 -2 -10 5 -18 7 -18 5z"/>
<path d="M1860 1206 c0 -2 8 -10 18 -17 15 -13 16 -12 3 4 -13 16 -21 21 -21
13z"/>
<path d="M1969 1163 c-13 -16 -12 -17 4 -4 16 13 21 21 13 21 -2 0 -10 -8 -17
-17z"/>
<path d="M8220 1169 c0 -5 -4 -7 -10 -4 -14 9 -12 -1 3 -13 10 -8 13 -6 14 9
1 10 0 19 -3 19 -2 0 -4 -5 -4 -11z"/>
<path d="M8250 1176 c0 -2 8 -10 18 -17 15 -13 16 -12 3 4 -13 16 -21 21 -21
13z"/>
<path d="M2030 1161 c0 -10 29 -36 34 -30 1 2 -6 12 -16 22 -10 9 -18 13 -18
8z"/>
<path d="M8148 1127 c2 -10 5 -16 6 -15 1 2 7 10 13 18 10 13 8 16 -6 16 -13
0 -17 -6 -13 -19z"/>
<path d="M2130 1121 c0 -6 4 -13 10 -16 6 -3 7 1 4 9 -7 18 -14 21 -14 7z"/>
<path d="M8181 1116 c-9 -11 -9 -16 1 -22 7 -4 10 -4 6 1 -4 4 -3 14 3 22 6 7
9 13 6 13 -2 0 -10 -6 -16 -14z"/>
<path d="M2176 1112 c-2 -4 4 -8 14 -8 10 0 16 4 14 8 -3 4 -9 8 -14 8 -5 0
-11 -4 -14 -8z"/>
<path d="M2055 1100 c3 -5 8 -10 11 -10 2 0 4 5 4 10 0 6 -5 10 -11 10 -5 0
-7 -4 -4 -10z"/>
<path d="M2174 1074 c1 -8 4 -15 7 -16 2 -2 3 -1 2 1 -2 2 2 9 7 16 7 8 5 12
-4 12 -8 0 -13 -6 -12 -13z"/>
<path d="M2280 1080 c-8 -5 -10 -10 -5 -10 6 0 17 5 25 10 8 5 11 10 5 10 -5
0 -17 -5 -25 -10z"/>
<path d="M7987 1074 c2 -7 12 -15 20 -18 12 -5 13 -4 5 7 -7 8 -10 16 -7 19 3
2 -1 5 -9 5 -8 0 -12 -6 -9 -13z"/>
<path d="M8086 1078 c3 -5 10 -6 15 -3 13 9 11 12 -6 12 -8 0 -12 -4 -9 -9z"/>
<path d="M8150 1080 c0 -5 5 -10 11 -10 5 0 7 5 4 10 -3 6 -8 10 -11 10 -2 0
-4 -4 -4 -10z"/>
<path d="M2320 1076 c0 -2 7 -7 16 -10 8 -3 12 -2 9 4 -6 10 -25 14 -25 6z"/>
<path d="M7952 1067 c-8 -10 -6 -13 7 -13 11 0 17 6 14 13 -3 7 -6 13 -8 13
-1 0 -7 -6 -13 -13z"/>
<path d="M8035 1071 c-3 -5 -2 -12 3 -15 5 -3 9 1 9 9 0 17 -3 19 -12 6z"/>
<path d="M2230 1066 c0 -2 7 -7 16 -10 8 -3 12 -2 9 4 -6 10 -25 14 -25 6z"/>
<path d="M7874 1056 c1 -8 5 -18 8 -22 4 -3 5 1 4 10 -1 8 -5 18 -8 22 -4 3
-5 -1 -4 -10z"/>
<path d="M7815 1052 c-5 -4 -17 -16 -25 -27 -14 -18 -14 -19 2 -7 9 8 21 11
25 9 5 -3 9 3 9 14 0 10 0 19 -1 19 0 0 -4 -4 -10 -8z"/>
<path d="M2360 1040 c8 -5 20 -10 25 -10 6 0 3 5 -5 10 -8 5 -19 10 -25 10 -5
0 -3 -5 5 -10z"/>
<path d="M2293 1025 c0 -8 4 -12 9 -9 5 3 6 10 3 15 -9 13 -12 11 -12 -6z"/>
<path d="M7707 1013 c3 -7 6 -13 8 -13 1 0 7 6 13 13 8 10 6 13 -7 13 -11 0
-17 -6 -14 -13z"/>
<path d="M2666 1004 c-4 -9 -4 -19 -1 -22 3 -3 5 0 5 7 0 7 4 10 8 7 5 -3 9 1
9 9 0 20 -13 19 -21 -1z"/>
<path d="M7637 1010 c7 -8 20 -15 29 -16 9 -1 13 1 9 4 -4 4 -10 7 -13 7 -4 0
-14 4 -22 9 -12 7 -13 6 -3 -4z"/>
<path d="M2356 998 c3 -5 10 -6 15 -3 13 9 11 12 -6 12 -8 0 -12 -4 -9 -9z"/>
<path d="M2480 1000 c-9 -6 -10 -10 -3 -10 6 0 15 5 18 10 8 12 4 12 -15 0z"/>
<path d="M2510 998 c0 -6 3 -8 7 -5 3 4 11 2 18 -3 8 -7 12 -6 12 3 0 7 -9 14
-19 14 -10 1 -18 -3 -18 -9z"/>
<path d="M2744 998 c-4 -7 -4 -10 1 -6 4 4 16 3 26 -3 11 -5 19 -7 19 -5 0 3
-9 10 -19 16 -15 7 -22 7 -27 -2z"/>
<path d="M7599 1003 c0 -5 -2 -16 -4 -26 -2 -11 -1 -16 3 -13 8 8 14 46 7 46
-3 0 -5 -3 -6 -7z"/>
<path d="M2916 991 c-3 -5 1 -11 9 -14 9 -4 12 -1 8 9 -6 16 -10 17 -17 5z"/>
<path d="M3147 987 c-3 -7 3 -13 14 -13 13 0 15 3 7 13 -6 7 -12 13 -13 13 -2
0 -5 -6 -8 -13z"/>
<path d="M7353 985 c0 -8 4 -15 9 -15 4 0 8 4 8 9 0 6 -4 12 -8 15 -5 3 -9 -1
-9 -9z"/>
<path d="M2410 979 c0 -5 5 -7 10 -4 6 3 10 8 10 11 0 2 -4 4 -10 4 -5 0 -10
-5 -10 -11z"/>
<path d="M2599 973 c-13 -16 -12 -17 4 -4 9 7 17 15 17 17 0 8 -8 3 -21 -13z"/>
<path d="M3228 968 c7 -27 17 -29 17 -4 0 13 -5 23 -11 23 -6 0 -9 -9 -6 -19z"/>
<path d="M3393 975 c0 -8 4 -12 9 -9 4 3 8 9 8 15 0 5 -4 9 -8 9 -5 0 -9 -7
-9 -15z"/>
<path d="M3510 980 c0 -5 5 -10 11 -10 5 0 7 5 4 10 -3 6 -8 10 -11 10 -2 0
-4 -4 -4 -10z"/>
<path d="M3755 980 c-3 -5 -1 -10 4 -10 6 0 11 5 11 10 0 6 -2 10 -4 10 -3 0
-8 -4 -11 -10z"/>
<path d="M5675 980 c-3 -5 -1 -10 4 -10 6 0 11 5 11 10 0 6 -2 10 -4 10 -3 0
-8 -4 -11 -10z"/>
<path d="M7425 980 c6 -8 10 -18 10 -22 0 -3 4 -10 9 -15 6 -5 6 -2 1 6 -6 10
-4 13 7 9 8 -4 15 0 15 8 0 7 -4 11 -9 8 -5 -3 -16 0 -25 8 -14 11 -15 11 -8
-2z"/>
<path d="M4130 966 c0 -8 4 -17 9 -20 5 -4 7 3 4 14 -6 23 -13 26 -13 6z"/>
<path d="M4770 966 c0 -8 4 -17 9 -20 5 -4 7 3 4 14 -6 23 -13 26 -13 6z"/>
<path d="M5837 970 c7 -8 20 -15 29 -16 9 -1 13 1 9 4 -4 4 -10 7 -13 7 -4 0
-14 4 -22 9 -12 7 -13 6 -3 -4z"/>
<path d="M5914 960 c0 -13 4 -16 10 -10 7 7 7 13 0 20 -6 6 -10 3 -10 -10z"/>
<path d="M5993 965 c0 -8 4 -15 9 -15 4 0 8 4 8 9 0 6 -4 12 -8 15 -5 3 -9 -1
-9 -9z"/>
<path d="M6835 970 c-4 -6 -10 -8 -14 -6 -4 3 -13 0 -21 -5 -11 -7 -10 -8 8
-6 20 3 56 27 40 27 -4 0 -10 -5 -13 -10z"/>
<path d="M6868 973 c6 -2 18 -2 25 0 6 3 1 5 -13 5 -14 0 -19 -2 -12 -5z"/>
<path d="M6916 967 c3 -10 9 -15 12 -12 3 3 0 11 -7 18 -10 9 -11 8 -5 -6z"/>
<path d="M7104 958 c-12 -14 -13 -18 -3 -10 9 6 18 10 21 7 2 -3 5 2 5 10 0
19 0 19 -23 -7z"/>
<path d="M7653 965 c0 -8 4 -12 9 -9 5 3 6 10 3 15 -9 13 -12 11 -12 -6z"/>
<path d="M7835 969 c-4 -6 -5 -12 -2 -15 2 -3 7 2 10 11 7 17 1 20 -8 4z"/>
<path d="M2636 958 c3 -5 10 -6 15 -3 13 9 11 12 -6 12 -8 0 -12 -4 -9 -9z"/>
<path d="M2875 960 c-3 -5 3 -7 12 -5 10 1 25 -2 33 -8 12 -9 13 -9 3 3 -15
16 -41 22 -48 10z"/>
<path d="M3032 965 c3 -3 16 -8 28 -10 12 -2 20 -1 16 2 -4 4 -16 8 -28 10
-12 2 -19 1 -16 -2z"/>
<path d="M3295 960 c-3 -5 -1 -10 4 -10 6 0 11 5 11 10 0 6 -2 10 -4 10 -3 0
-8 -4 -11 -10z"/>
<path d="M3540 965 c0 -2 6 -8 13 -14 10 -8 14 -7 14 2 0 8 -6 14 -14 14 -7 0
-13 -1 -13 -2z"/>
<path d="M3620 960 c-8 -5 -10 -10 -5 -10 6 0 17 5 25 10 8 5 11 10 5 10 -5 0
-17 -5 -25 -10z"/>
<path d="M3695 961 c3 -3 17 -6 31 -7 13 0 22 2 19 5 -3 3 -17 6 -31 7 -13 0
-22 -2 -19 -5z"/>
<path d="M3920 960 c-9 -6 -10 -10 -3 -10 6 0 15 5 18 10 8 12 4 12 -15 0z"/>
<path d="M4041 956 c-9 -11 -9 -16 1 -22 7 -4 10 -4 6 1 -4 4 -3 14 3 22 6 7
9 13 6 13 -2 0 -10 -6 -16 -14z"/>
<path d="M4270 961 c0 -6 4 -13 10 -16 6 -3 7 1 4 9 -7 18 -14 21 -14 7z"/>
<path d="M4390 958 c0 -4 4 -8 9 -8 6 0 12 4 15 8 3 5 -1 9 -9 9 -8 0 -15 -4
-15 -9z"/>
<path d="M4470 956 c7 -7 13 -7 20 0 6 6 3 10 -10 10 -13 0 -16 -4 -10 -10z"/>
<path d="M4560 960 c-9 -6 -10 -10 -3 -10 6 0 15 5 18 10 8 12 4 12 -15 0z"/>
<path d="M4681 956 c-9 -11 -9 -16 1 -22 7 -4 10 -4 6 1 -4 4 -3 14 3 22 6 7
9 13 6 13 -2 0 -10 -6 -16 -14z"/>
<path d="M4910 961 c0 -6 4 -13 10 -16 6 -3 7 1 4 9 -7 18 -14 21 -14 7z"/>
<path d="M5030 958 c0 -4 4 -8 9 -8 6 0 12 4 15 8 3 5 -1 9 -9 9 -8 0 -15 -4
-15 -9z"/>
<path d="M5215 960 c-3 -5 -1 -10 4 -10 6 0 11 5 11 10 0 6 -2 10 -4 10 -3 0
-8 -4 -11 -10z"/>
<path d="M5306 962 c-3 -5 1 -9 9 -9 8 0 15 4 15 9 0 4 -4 8 -9 8 -6 0 -12 -4
-15 -8z"/>
<path d="M5390 961 c0 -6 4 -13 10 -16 6 -3 7 1 4 9 -7 18 -14 21 -14 7z"/>
<path d="M5466 958 c3 -5 10 -6 15 -3 13 9 11 12 -6 12 -8 0 -12 -4 -9 -9z"/>
<path d="M5496 953 c-6 -14 -5 -15 5 -6 7 7 10 15 7 18 -3 3 -9 -2 -12 -12z"/>
<path d="M5615 961 c3 -3 17 -6 31 -7 13 0 22 2 19 5 -3 3 -17 6 -31 7 -13 0
-22 -2 -19 -5z"/>
<path d="M6130 961 c0 -6 4 -13 10 -16 6 -3 7 1 4 9 -7 18 -14 21 -14 7z"/>
<path d="M6173 956 c-3 -6 -3 -8 2 -4 4 4 13 3 20 -2 8 -7 12 -5 12 3 0 16
-25 18 -34 3z"/>
<path d="M6265 960 c-3 -6 1 -7 9 -4 18 7 21 14 7 14 -6 0 -13 -4 -16 -10z"/>
<path d="M6354 962 c4 -3 14 -7 22 -8 9 -1 13 0 10 4 -4 3 -14 7 -22 8 -9 1
-13 0 -10 -4z"/>
<path d="M6510 961 c0 -6 4 -12 8 -15 5 -3 9 1 9 9 0 8 -4 15 -9 15 -4 0 -8
-4 -8 -9z"/>
<path d="M6570 958 c0 -4 4 -8 9 -8 6 0 12 4 15 8 3 5 -1 9 -9 9 -8 0 -15 -4
-15 -9z"/>
<path d="M6640 960 c-9 -6 -10 -10 -3 -10 6 0 15 5 18 10 8 12 4 12 -15 0z"/>
<path d="M6720 960 c-12 -7 -10 -9 8 -7 12 0 22 5 22 9 0 11 -12 10 -30 -2z"/>
<path d="M7006 962 c-3 -5 1 -9 9 -9 8 0 15 4 15 9 0 4 -4 8 -9 8 -6 0 -12 -4
-15 -8z"/>
<path d="M7273 952 c-8 -14 -8 -19 1 -19 7 0 13 9 13 19 2 23 1 23 -14 0z"/>
<path d="M7400 960 c-9 -6 -10 -10 -3 -10 6 0 15 5 18 10 8 12 4 12 -15 0z"/>
<path d="M7896 958 c3 -5 10 -6 15 -3 13 9 11 12 -6 12 -8 0 -12 -4 -9 -9z"/>
<path d="M2815 951 c-3 -5 -2 -12 3 -15 5 -3 9 1 9 9 0 17 -3 19 -12 6z"/>
<path d="M3475 951 c-3 -5 -2 -12 3 -15 5 -3 9 1 9 9 0 17 -3 19 -12 6z"/>
<path d="M5593 945 c0 -8 4 -12 9 -9 5 3 6 10 3 15 -9 13 -12 11 -12 -6z"/>
<path d="M6229 943 c-13 -16 -12 -17 4 -4 16 13 21 21 13 21 -2 0 -10 -8 -17
-17z"/>
<path d="M6296 952 c-2 -4 4 -8 14 -8 10 0 16 4 14 8 -3 4 -9 8 -14 8 -5 0
-11 -4 -14 -8z"/>
<path d="M7535 951 c-3 -5 -2 -12 3 -15 5 -3 9 1 9 9 0 17 -3 19 -12 6z"/>
<path d="M7573 945 c0 -8 4 -12 9 -9 5 3 6 10 3 15 -9 13 -12 11 -12 -6z"/>
<path d="M2590 940 c0 -5 5 -10 11 -10 5 0 7 5 4 10 -3 6 -8 10 -11 10 -2 0
-4 -4 -4 -10z"/>
<path d="M3116 938 c3 -5 10 -6 15 -3 13 9 11 12 -6 12 -8 0 -12 -4 -9 -9z"/>
<path d="M3186 938 c3 -4 9 -8 15 -8 5 0 9 4 9 8 0 5 -7 9 -15 9 -8 0 -12 -4
-9 -9z"/>
<path d="M3510 938 c0 -4 4 -8 9 -8 6 0 12 4 15 8 3 5 -1 9 -9 9 -8 0 -15 -4
-15 -9z"/>
<path d="M5759 933 c-13 -16 -12 -17 4 -4 16 13 21 21 13 21 -2 0 -10 -8 -17
-17z"/>
<path d="M6980 946 c0 -2 8 -10 18 -17 15 -13 16 -12 3 4 -13 16 -21 21 -21
13z"/>
<path d="M7193 929 c-2 -23 3 -25 10 -4 4 8 3 16 -1 19 -4 3 -9 -4 -9 -15z"/>
<path d="M7490 939 c0 -5 5 -7 10 -4 6 3 10 8 10 11 0 2 -4 4 -10 4 -5 0 -10
-5 -10 -11z"/>
<path d="M3053 925 c0 -8 4 -12 9 -9 5 3 6 10 3 15 -9 13 -12 11 -12 -6z"/>
<path d="M4389 923 c-13 -16 -12 -17 4 -4 9 7 17 15 17 17 0 8 -8 3 -21 -13z"/>
<path d="M5029 923 c-13 -16 -12 -17 4 -4 16 13 21 21 13 21 -2 0 -10 -8 -17
-17z"/>
<path d="M5853 925 c0 -8 4 -12 9 -9 5 3 6 10 3 15 -9 13 -12 11 -12 -6z"/>
<path d="M5935 931 c-3 -5 -2 -12 3 -15 5 -3 9 1 9 9 0 17 -3 19 -12 6z"/>
<path d="M5973 925 c0 -8 4 -12 9 -9 5 3 6 10 3 15 -9 13 -12 11 -12 -6z"/>
<path d="M6055 931 c-3 -5 -2 -12 3 -15 5 -3 9 1 9 9 0 17 -3 19 -12 6z"/>
<path d="M6629 923 c-13 -16 -12 -17 4 -4 9 7 17 15 17 17 0 8 -8 3 -21 -13z"/>
<path d="M6735 931 c-3 -5 -2 -12 3 -15 5 -3 9 1 9 9 0 17 -3 19 -12 6z"/>
<path d="M6773 925 c0 -8 4 -12 9 -9 5 3 6 10 3 15 -9 13 -12 11 -12 -6z"/>
<path d="M6935 931 c-3 -5 -2 -12 3 -15 5 -3 9 1 9 9 0 17 -3 19 -12 6z"/>
<path d="M2690 921 c0 -6 4 -13 10 -16 6 -3 7 1 4 9 -7 18 -14 21 -14 7z"/>
<path d="M2896 918 c3 -5 10 -6 15 -3 13 9 11 12 -6 12 -8 0 -12 -4 -9 -9z"/>
<path d="M2975 920 c3 -5 8 -10 11 -10 2 0 4 5 4 10 0 6 -5 10 -11 10 -5 0 -7
-4 -4 -10z"/>
<path d="M3310 920 c0 -5 5 -10 11 -10 5 0 7 5 4 10 -3 6 -8 10 -11 10 -2 0
-4 -4 -4 -10z"/>
<path d="M3344 922 c4 -3 14 -7 22 -8 9 -1 13 0 10 4 -4 3 -14 7 -22 8 -9 1
-13 0 -10 -4z"/>
<path d="M3425 920 c-3 -6 1 -7 9 -4 18 7 21 14 7 14 -6 0 -13 -4 -16 -10z"/>
<path d="M3595 920 c3 -5 8 -10 11 -10 2 0 4 5 4 10 0 6 -5 10 -11 10 -5 0 -7
-4 -4 -10z"/>
<path d="M3670 918 c0 -4 4 -8 9 -8 6 0 12 4 15 8 3 5 -1 9 -9 9 -8 0 -15 -4
-15 -9z"/>
<path d="M4159 913 c-13 -16 -12 -17 4 -4 9 7 17 15 17 17 0 8 -8 3 -21 -13z"/>
<path d="M4310 926 c0 -2 7 -7 16 -10 8 -3 12 -2 9 4 -6 10 -25 14 -25 6z"/>
<path d="M4799 913 c-13 -16 -12 -17 4 -4 9 7 17 15 17 17 0 8 -8 3 -21 -13z"/>
<path d="M4950 926 c0 -2 7 -7 16 -10 8 -3 12 -2 9 4 -6 10 -25 14 -25 6z"/>
<path d="M5230 919 c0 -5 5 -7 10 -4 6 3 10 8 10 11 0 2 -4 4 -10 4 -5 0 -10
-5 -10 -11z"/>
<path d="M5270 916 c7 -7 13 -7 20 0 6 6 3 10 -10 10 -13 0 -16 -4 -10 -10z"/>
<path d="M6550 926 c0 -2 7 -7 16 -10 8 -3 12 -2 9 4 -6 10 -25 14 -25 6z"/>
<path d="M6855 920 c3 -5 8 -10 11 -10 2 0 4 5 4 10 0 6 -5 10 -11 10 -5 0 -7
-4 -4 -10z"/>
<path d="M7145 920 c-3 -6 1 -7 9 -4 18 7 21 14 7 14 -6 0 -13 -4 -16 -10z"/>
<path d="M3190 886 c0 -2 7 -7 16 -10 8 -3 12 -2 9 4 -6 10 -25 14 -25 6z"/>
</g>
</svg>
